<svg xmlns="http://www.w3.org/2000/svg" width="92" height="92" viewBox="0 0 92 92">
  <g transform="translate(-811 -4062)">
    <g transform="translate(92.035 5183.02)">
      <g transform="translate(738 -1101.982)">
        <g transform="translate(0 0)">
          <path d="M53.514,42.619,42.6,35.34a3.186,3.186,0,0,0-4.266.693l-3.18,4.088a1.359,1.359,0,0,1-1.743.367l-.6-.333c-2-1.093-4.5-2.453-9.526-7.481s-6.39-7.525-7.482-9.526l-.332-.6a1.361,1.361,0,0,1,.359-1.749l4.085-3.179a3.188,3.188,0,0,0,.694-4.266L13.325,2.433a3.169,3.169,0,0,0-4.272-.962L4.488,4.213a6.438,6.438,0,0,0-2.936,3.81c-1.644,5.989-.407,16.324,14.818,31.552C28.482,51.686,37.5,54.942,43.7,54.942a15.921,15.921,0,0,0,4.224-.552,6.432,6.432,0,0,0,3.81-2.936l2.745-4.562A3.17,3.17,0,0,0,53.514,42.619Zm-.588,3.352-2.738,4.564a4.645,4.645,0,0,1-2.741,2.124c-5.529,1.518-15.188.261-29.8-14.356S1.768,14.028,3.286,8.5A4.652,4.652,0,0,1,5.413,5.754L9.977,3.016a1.375,1.375,0,0,1,1.854.417L15.786,9.37,19.1,14.347a1.383,1.383,0,0,1-.3,1.851l-4.086,3.179a3.145,3.145,0,0,0-.833,4.037l.324.59c1.149,2.106,2.576,4.727,7.79,9.939s7.833,6.64,9.938,7.789l.59.325a3.145,3.145,0,0,0,4.037-.833l3.179-4.086a1.384,1.384,0,0,1,1.851-.3l10.914,7.279A1.374,1.374,0,0,1,52.926,45.971Z" transform="translate(-1 -1.018)" fill="#fff" />
          <path d="M283.527,71.121A15.3,15.3,0,0,1,298.8,86.4a.9.9,0,1,0,1.8,0,17.094,17.094,0,0,0-17.075-17.075.9.9,0,1,0,0,1.8Z" transform="translate(-252.969 -62.13)" fill="#fff" />
          <path d="M283.527,122.321a9.9,9.9,0,0,1,9.885,9.885.9.9,0,0,0,1.8,0,11.7,11.7,0,0,0-11.683-11.683.9.9,0,1,0,0,1.8Z" transform="translate(-252.969 -107.938)" fill="#fff" />
          <path d="M283.527,173.521a4.5,4.5,0,0,1,4.493,4.493.9.9,0,1,0,1.8,0,6.3,6.3,0,0,0-6.291-6.291.9.9,0,0,0,0,1.8Z" transform="translate(-252.969 -153.746)" fill="#fff" />
        </g>
      </g>
    </g>
    <g transform="translate(811 4062)" fill="none" stroke="#fff" stroke-width="3">
      <circle cx="46" cy="46" r="46" stroke="none" />
      <circle cx="46" cy="46" r="44.5" fill="none" />
    </g>
  </g>
</svg>