<svg xmlns="http://www.w3.org/2000/svg" width="92" height="92" viewBox="0 0 92 92"><g transform="translate(-1018 -4062)"><path d="M48.636,21.516l0,0L28.453,1.334a4.554,4.554,0,0,0-6.441,0L1.843,21.5l-.02.021a4.552,4.552,0,0,0,3.03,7.759c.047,0,.094.007.141.007h.8v14.85a5.336,5.336,0,0,0,5.33,5.33h7.895a1.449,1.449,0,0,0,1.449-1.449V36.377A2.435,2.435,0,0,1,22.9,33.945h4.657a2.434,2.434,0,0,1,2.432,2.432V48.02a1.449,1.449,0,0,0,1.449,1.449h7.895a5.336,5.336,0,0,0,5.33-5.33V29.289h.746a4.555,4.555,0,0,0,3.223-7.773Zm-2.052,4.389a1.645,1.645,0,0,1-1.171.485h-2.2a1.449,1.449,0,0,0-1.449,1.449v16.3a2.434,2.434,0,0,1-2.432,2.431H32.891V36.377a5.336,5.336,0,0,0-5.33-5.33H22.9a5.337,5.337,0,0,0-5.331,5.33V46.571H11.128A2.435,2.435,0,0,1,8.7,44.139V27.84a1.449,1.449,0,0,0-1.449-1.449H5.089l-.068,0a1.654,1.654,0,0,1-1.14-2.824h0L24.062,3.383a1.655,1.655,0,0,1,2.341,0L46.578,23.557l.009.009a1.659,1.659,0,0,1,0,2.339Zm0,0" transform="translate(1038.5 4083.03)" fill="#fff"/><g transform="translate(1018 4062)" fill="none" stroke="#fff" stroke-width="3"><circle cx="46" cy="46" r="46" stroke="none"/><circle cx="46" cy="46" r="44.5" fill="none"/></g></g></svg>